# xmcd
#
# Track frame offsets:
#	150
#	15012
#	27768
#	44509
#	59346
#	74011
#	88958
#	102863
#	117533
#	131928
#	146426
#	161254
#	177187
#	192568
#	210108
#	224536
#
# Disc length: 3429 seconds
#
# Revision: 1
# Processed by: cddbd v1.5.2PL0 Copyright (c) Steve Scherf et al.
# Submitted via: audiograbber 1.83.01
#
DISCID=e80d6310
DTITLE=Annett Louisan - Das Optimale Leben
DYEAR=2007
DGENRE=Chanson
TTITLE0=Das alles wär nie passiert
TTITLE1=Kleine Zwischenfälle
TTITLE2=Was haben wir gesucht
TTITLE3=Er
TTITLE4=Die Wahrheit
TTITLE5=Wenn man sich nicht mehr liebt
TTITLE6=Ich ...be dich,
TTITLE7=Die sein
TTITLE8=Mein innerer Schweinhund
TTITLE9=Gendefekt
TTITLE10=Unbekümmert
TTITLE11=Rosenkrieg
TTITLE12=Dings
TTITLE13=Ende Dezember
TTITLE14=Der kleine Unterschied
TTITLE15=Erklärungen
EXTD=
EXTT0=
EXTT1=
EXTT2=
EXTT3=
EXTT4=
EXTT5=
EXTT6=
EXTT7=
EXTT8=
EXTT9=
EXTT10=
EXTT11=
EXTT12=
EXTT13=
EXTT14=
EXTT15=Annet Louisan gibt einige Erklärungen zu den Liedern dieser CD ab.
PLAYORDER=
